# xmcd
#
# Track frame offsets: 
#        150
#        16604
#        33052
#        48581
#        63151
#        74566
#        89261
#        108013
#        123756
#        141356
#        162312
#        179967
#
# Disc length: 2569 seconds
#
# Revision: 0
# Processed by: cddbd v1.5.2PL0 Copyright (c) Steve Scherf et al.
# Submitted via: ExactAudioCopyFreeDBPlugin 1.0
#
DISCID=9d0a070c
DTITLE=Jeff Brown  - The Open Road
DYEAR=2008
DGENRE=Country
TTITLE0=The Long Haul
TTITLE1=Poverty Liner
TTITLE2=The Open Road
TTITLE3=Life Behind the Wheel 
TTITLE4=Clancy of the Overdraft
TTITLE5=Mate I’m Feelin’ Lucky
TTITLE6=Send ‘er Down Hughie
TTITLE7=Torn Between Two Worlds
TTITLE8=Foggy Mirrors
TTITLE9=Truckin’ the Wright Way
TTITLE10=Counting Down the K’s
TTITLE11=There Lies a Workhorse
EXTD=
EXTT0=
EXTT1=
EXTT2=
EXTT3=
EXTT4=
EXTT5=
EXTT6=
EXTT7=
EXTT8=
EXTT9=
EXTT10=
EXTT11=
PLAYORDER=
